<?xml version="1.0" encoding="utf-8"?>
<!-- Generator: Adobe Illustrator 16.0.4, SVG Export Plug-In . SVG Version: 6.00 Build 0)  -->
<!DOCTYPE svg PUBLIC "-//W3C//DTD SVG 1.1//EN" "http://www.w3.org/Graphics/SVG/1.1/DTD/svg11.dtd">
<svg version="1.1" id="Layer_1" xmlns="http://www.w3.org/2000/svg" xmlns:xlink="http://www.w3.org/1999/xlink" x="0px" y="0px"
	 width="1093.685px" height="143.927px" viewBox="0 0 1093.685 143.927" enable-background="new 0 0 1093.685 143.927"
	 xml:space="preserve">
<path fill="#939598" d="M753.793,17.372l-46.715,74.086l-31.814-47.716l29.84,22.721l46.178-51.444
	C740.782,5.678,726.963,0,711.815,0c-32.82,0-59.416,26.601-59.416,59.405c0,32.824,26.596,59.414,59.416,59.414
	c32.812,0,59.408-26.59,59.408-59.414C771.223,42.988,764.561,28.129,753.793,17.372z"/>
<g>
	<path fill="#314E7B" d="M13.304,2.241h43.972c5.777,0,11.258,0.562,16.449,1.685c5.188,1.123,9.733,2.996,13.641,5.617
		c3.904,2.622,7.006,6.153,9.308,10.591c2.299,4.441,3.45,9.978,3.45,16.61c0,8.023-2.086,14.844-6.259,20.461
		S83.594,66.38,75.569,67.877l28.887,47.983h-30.01L50.695,70.444H38.339v45.416H13.304V2.241z M38.339,49.262h14.764
		c2.247,0,4.626-0.081,7.142-0.241c2.513-0.16,4.786-0.642,6.82-1.444c2.031-0.803,3.716-2.059,5.055-3.771
		c1.337-1.71,2.006-4.117,2.006-7.222c0-2.889-0.589-5.188-1.765-6.9c-1.179-1.71-2.676-3.021-4.494-3.932
		c-1.82-0.907-3.906-1.524-6.258-1.846c-2.355-0.32-4.654-0.481-6.901-0.481H38.339V49.262z"/>
	<path fill="#314E7B" d="M118.257,2.241h77.19V25.35h-52.155v21.184h49.267v23.109h-49.267v23.108h55.044v23.109h-80.079V2.241z"/>
	<path fill="#314E7B" d="M255.786,2.241h20.702l49.428,113.619h-28.245l-9.789-24.072H243.75l-9.468,24.072H206.68L255.786,2.241z
		 M265.415,35.3l-13.802,35.306h27.764L265.415,35.3z"/>
	<path fill="#314E7B" d="M337.31,2.241h37.552c9.093,0,17.733,1.018,25.918,3.049c8.185,2.033,15.325,5.323,21.424,9.869
		c6.099,4.549,10.938,10.459,14.523,17.733c3.583,7.276,5.376,16.103,5.376,26.479c0,9.203-1.74,17.308-5.216,24.313
		c-3.478,7.008-8.159,12.894-14.042,17.652c-5.885,4.762-12.678,8.372-20.381,10.832c-7.703,2.463-15.782,3.691-24.232,3.691H337.31
		V2.241z M362.345,92.751h12.998c5.777,0,11.153-0.587,16.129-1.765c4.975-1.177,9.28-3.13,12.918-5.857
		c3.636-2.729,6.5-6.312,8.586-10.753c2.086-4.438,3.129-9.869,3.129-16.288c0-5.562-1.043-10.404-3.129-14.523
		c-2.086-4.117-4.895-7.516-8.425-10.19c-3.531-2.673-7.679-4.68-12.438-6.019c-4.762-1.336-9.765-2.006-15.005-2.006h-14.764
		V92.751z"/>
	<path fill="#314E7B" d="M479.01,67.396L436.322,2.241h31.134l24.071,42.526l25.517-42.526h29.688l-42.688,65.154v48.465H479.01
		V67.396z"/>
	<path fill="#939598" d="M555.077,2.241h42.207c5.883,0,11.445,0.536,16.689,1.604c5.24,1.07,9.814,2.916,13.721,5.536
		c3.904,2.623,7.006,6.153,9.309,10.592c2.299,4.44,3.449,10.03,3.449,16.771c0,6.635-1.07,12.196-3.209,16.689
		c-2.141,4.493-5.082,8.079-8.826,10.752c-3.746,2.676-8.186,4.574-13.32,5.697s-10.699,1.686-16.689,1.686h-18.294v44.292h-25.035
		V2.241z M580.112,50.385h16.689c2.248,0,4.414-0.213,6.5-0.642c2.086-0.427,3.957-1.148,5.617-2.167
		c1.656-1.016,2.994-2.407,4.012-4.173c1.016-1.765,1.523-3.984,1.523-6.659c0-2.889-0.668-5.216-2.006-6.981
		c-1.338-1.765-3.049-3.129-5.135-4.092s-4.412-1.577-6.98-1.846c-2.568-0.266-5.031-0.401-7.382-0.401h-12.838V50.385z"/>
	<path fill="#939598" d="M786.262,2.241h25.033V115.86h-25.033V2.241z"/>
	<path fill="#939598" d="M834.083,2.241h34.021l48.305,78.955h0.32V2.241h25.035V115.86h-32.738l-49.588-80.882h-0.32v80.882
		h-25.035V2.241z"/>
	<path fill="#939598" d="M986.858,24.387H954.44V2.241h89.869v22.146h-32.418v91.474h-25.033V24.387z"/>
</g>
<defs>
	<filter id="Adobe_OpacityMaskFilter" filterUnits="userSpaceOnUse" x="0" y="140.181" width="1047.555" height="3.746">
		
			<feColorMatrix  type="matrix" values="-1 0 0 0 1  0 -1 0 0 1  0 0 -1 0 1  0 0 0 1 0" color-interpolation-filters="sRGB" result="source"/>
	</filter>
</defs>
<mask maskUnits="userSpaceOnUse" x="0" y="140.181" width="1047.555" height="3.746" id="SVGID_1_">
	<g filter="url(#Adobe_OpacityMaskFilter)">
		
			<linearGradient id="SVGID_2_" gradientUnits="userSpaceOnUse" x1="-2511.7163" y1="142.0537" x2="8016.4712" y2="142.0537" gradientTransform="matrix(-0.0995 0 0 1 797.6389 0)">
			<stop  offset="0" style="stop-color:#314E7B"/>
			<stop  offset="1" style="stop-color:#FFFFFF"/>
		</linearGradient>
		<rect y="140.181" fill="url(#SVGID_2_)" width="1047.555" height="3.746"/>
	</g>
</mask>
<rect y="140.181" mask="url(#SVGID_1_)" fill="#314E7B" width="1047.555" height="3.746"/>
<defs>
	<filter id="Adobe_OpacityMaskFilter_1_" filterUnits="userSpaceOnUse" x="0" y="140.181" width="1047.555" height="3.746">
		
			<feColorMatrix  type="matrix" values="-1 0 0 0 1  0 -1 0 0 1  0 0 -1 0 1  0 0 0 1 0" color-interpolation-filters="sRGB" result="source"/>
	</filter>
</defs>
<mask maskUnits="userSpaceOnUse" x="0" y="140.181" width="1047.555" height="3.746" id="SVGID_3_">
	<g filter="url(#Adobe_OpacityMaskFilter_1_)">
		
			<linearGradient id="SVGID_4_" gradientUnits="userSpaceOnUse" x1="-2511.7163" y1="142.0537" x2="8016.4712" y2="142.0537" gradientTransform="matrix(-0.0995 0 0 1 797.6389 0)">
			<stop  offset="0" style="stop-color:#314E7B"/>
			<stop  offset="1" style="stop-color:#FFFFFF"/>
		</linearGradient>
		<rect y="140.181" fill="url(#SVGID_4_)" width="1047.555" height="3.746"/>
	</g>
</mask>
<rect y="140.181" mask="url(#SVGID_3_)" fill="#314E7B" width="1047.555" height="3.746"/>
<defs>
	<filter id="Adobe_OpacityMaskFilter_2_" filterUnits="userSpaceOnUse" x="0" y="140.181" width="1047.555" height="3.746">
		
			<feColorMatrix  type="matrix" values="-1 0 0 0 1  0 -1 0 0 1  0 0 -1 0 1  0 0 0 1 0" color-interpolation-filters="sRGB" result="source"/>
	</filter>
</defs>
<mask maskUnits="userSpaceOnUse" x="0" y="140.181" width="1047.555" height="3.746" id="SVGID_5_">
	<g filter="url(#Adobe_OpacityMaskFilter_2_)">
		
			<linearGradient id="SVGID_6_" gradientUnits="userSpaceOnUse" x1="-2511.7163" y1="142.0537" x2="8016.4712" y2="142.0537" gradientTransform="matrix(-0.0995 0 0 1 797.6389 0)">
			<stop  offset="0" style="stop-color:#314E7B"/>
			<stop  offset="1" style="stop-color:#FFFFFF"/>
		</linearGradient>
		<rect y="140.181" fill="url(#SVGID_6_)" width="1047.555" height="3.746"/>
	</g>
</mask>
<rect y="140.181" mask="url(#SVGID_5_)" fill="#314E7B" width="1047.555" height="3.746"/>
<g>
	<g>
		<path fill="#939598" d="M1058.994,7.841h-5.471V4.967h14.118v2.874h-5.471v14.976h-3.177V7.841z"/>
		<path fill="#939598" d="M1071.146,4.967h4.841l4.765,12.505l4.815-12.505h4.791v17.85h-3.025V7.993h-0.051l-5.421,14.825h-2.219
			l-5.42-14.825h-0.051v14.825h-3.025V4.967z"/>
	</g>
</g>
</svg>
