<?xml version="1.0" encoding="utf-8"?>
<!-- Generator: Adobe Illustrator 16.0.4, SVG Export Plug-In . SVG Version: 6.00 Build 0)  -->
<!DOCTYPE svg PUBLIC "-//W3C//DTD SVG 1.1//EN" "http://www.w3.org/Graphics/SVG/1.1/DTD/svg11.dtd">
<svg version="1.1" id="Layer_1" xmlns="http://www.w3.org/2000/svg" xmlns:xlink="http://www.w3.org/1999/xlink" x="0px" y="0px"
	 width="33.402px" height="33.401px" viewBox="347 344.585 33.402 33.401" enable-background="new 347 344.585 33.402 33.401"
	 xml:space="preserve">
<g>
	<path fill="#2F4D7D" d="M363.702,377.986c9.224,0,16.7-7.477,16.7-16.7c0-9.224-7.477-16.701-16.7-16.701
		c-9.224,0-16.702,7.477-16.702,16.701C347,370.51,354.478,377.986,363.702,377.986z M363.702,347.131
		c7.816,0,14.152,6.338,14.152,14.154c0,7.818-6.336,14.153-14.152,14.153c-7.817,0-14.155-6.335-14.155-14.153
		C349.547,353.469,355.885,347.131,363.702,347.131z"/>
	<path fill="#2F4D7D" d="M370.238,365.358c0.587,0,1.067-0.479,1.067-1.067v-6.188c0-0.587-0.48-1.067-1.067-1.067h-6.939v-3.583
		c0-0.587-0.875-0.728-1.289-0.312l-6.581,6.597c-1.038,1.039-0.951,2.037,0,2.987l6.543,6.56c0.415,0.415,1.326,0.275,1.326-0.312
		v-3.613H370.238L370.238,365.358z"/>
</g>
</svg>
