<?xml version="1.0" encoding="utf-8"?>
<!-- Generator: Adobe Illustrator 16.0.4, SVG Export Plug-In . SVG Version: 6.00 Build 0)  -->
<!DOCTYPE svg PUBLIC "-//W3C//DTD SVG 1.1//EN" "http://www.w3.org/Graphics/SVG/1.1/DTD/svg11.dtd">
<svg version="1.1" id="icons" xmlns="http://www.w3.org/2000/svg" xmlns:xlink="http://www.w3.org/1999/xlink" x="0px" y="0px"
	 width="39.357px" height="29.717px" viewBox="0 0 39.357 29.717" enable-background="new 0 0 39.357 29.717" xml:space="preserve">
<g>
	<path fill="#FFFFFF" d="M11.302,0.394C11.302,0.178,11.125,0,10.908,0H6.186C5.969,0,5.792,0.178,5.792,0.394V2.32h5.51V0.394z"/>
	<path fill="#FFFFFF" d="M22.658,11.152c-3.117,0-5.653,2.537-5.653,5.656c0,3.116,2.536,5.652,5.653,5.652s5.654-2.536,5.654-5.652
		C28.312,13.688,25.775,11.152,22.658,11.152z"/>
	<path fill="#FFFFFF" d="M36.21,3.894h-4.75v-2.32C31.46,0.708,30.751,0,29.885,0H15.357c-0.866,0-1.575,0.708-1.575,1.574v2.32
		H3.147C1.417,3.894,0,5.311,0,7.042v19.527c0,1.729,1.417,3.146,3.147,3.146H36.21c1.731,0,3.147-1.417,3.147-3.146V7.042
		C39.357,5.311,37.941,3.894,36.21,3.894z M7.705,11.841c-1.087,0-1.967-0.881-1.967-1.967s0.88-1.968,1.967-1.968
		s1.968,0.881,1.968,1.968S8.792,11.841,7.705,11.841z M22.658,25.606c-4.86,0-8.801-3.94-8.801-8.801
		c0-4.862,3.939-8.803,8.801-8.803s8.802,3.941,8.802,8.803C31.46,21.666,27.519,25.606,22.658,25.606z"/>
</g>
</svg>
