<?xml version="1.0" encoding="utf-8"?>
<!-- Generator: Adobe Illustrator 16.0.4, SVG Export Plug-In . SVG Version: 6.00 Build 0)  -->
<!DOCTYPE svg PUBLIC "-//W3C//DTD SVG 1.1//EN" "http://www.w3.org/Graphics/SVG/1.1/DTD/svg11.dtd">
<svg version="1.1" id="Layer_1" xmlns="http://www.w3.org/2000/svg" xmlns:xlink="http://www.w3.org/1999/xlink" x="0px" y="0px"
	 width="20.102px" height="35.209px" viewBox="348.941 333.5 20.102 35.209" enable-background="new 348.941 333.5 20.102 35.209"
	 xml:space="preserve">
<path fill="#FFFFFF" d="M357.352,343.72h3.28c0.5,0,0.908,0.408,0.908,0.906v0.908h-5.095v-0.908
	C356.445,344.127,356.853,343.72,357.352,343.72L357.352,343.72z M350.29,346.651h17.403c0.743,0,1.35,0.606,1.35,1.349v1.35
	h-20.102V348C348.941,347.257,349.548,346.651,350.29,346.651L350.29,346.651z M349.817,350.443h18.349l-1.494,16.665
	c-0.078,0.875-0.719,1.601-1.599,1.601h-12.162c-0.88,0-1.521-0.725-1.6-1.601L349.817,350.443L349.817,350.443z M358.992,352.4
	c-0.452,0-0.82,0.37-0.82,0.821v12.709c0,0.451,0.369,0.82,0.82,0.82l0,0c0.451,0,0.82-0.369,0.82-0.82v-12.709
	C359.812,352.77,359.443,352.4,358.992,352.4L358.992,352.4L358.992,352.4z M354.112,352.41c-0.45,0.023-0.799,0.412-0.775,0.862
	l0.664,12.693c0.024,0.451,0.412,0.799,0.863,0.775l0,0c0.451-0.022,0.801-0.412,0.777-0.862l-0.666-12.693
	C354.952,352.736,354.563,352.387,354.112,352.41L354.112,352.41L354.112,352.41z M363.871,352.41L363.871,352.41
	c-0.452-0.024-0.839,0.326-0.862,0.776l-0.665,12.693c-0.025,0.45,0.324,0.84,0.774,0.862l0,0c0.452,0.023,0.839-0.324,0.863-0.775
	l0.665-12.693C364.67,352.822,364.321,352.434,363.871,352.41z"/>
</svg>
