<?xml version="1.0" encoding="utf-8"?>
<!-- Generator: Adobe Illustrator 16.0.4, SVG Export Plug-In . SVG Version: 6.00 Build 0)  -->
<!DOCTYPE svg PUBLIC "-//W3C//DTD SVG 1.1//EN" "http://www.w3.org/Graphics/SVG/1.1/DTD/svg11.dtd">
<svg version="1.1" id="Isolation_Mode" xmlns="http://www.w3.org/2000/svg" xmlns:xlink="http://www.w3.org/1999/xlink" x="0px"
	 y="0px" width="32.774px" height="19.358px" viewBox="4.097 2.419 32.774 19.358"
	 enable-background="new 4.097 2.419 32.774 19.358" xml:space="preserve">
<path fill="#25507D" d="M35.344,21.777H5.625c-0.845,0-1.529-0.684-1.529-1.527c0-0.845,0.684-1.528,1.529-1.528h29.718
	c0.844,0,1.527,0.684,1.527,1.528C36.871,21.094,36.188,21.777,35.344,21.777z"/>
<path fill="#25507D" d="M35.344,13.628H5.625c-0.845,0-1.529-0.686-1.529-1.529c0-0.844,0.684-1.528,1.529-1.528h29.718
	c0.844,0,1.527,0.684,1.527,1.528C36.871,12.942,36.188,13.628,35.344,13.628z"/>
<path fill="#25507D" d="M35.344,5.476H5.625c-0.845,0-1.529-0.684-1.529-1.529c0-0.844,0.684-1.527,1.529-1.527h29.718
	c0.844,0,1.527,0.684,1.527,1.527C36.871,4.792,36.188,5.476,35.344,5.476z"/>
</svg>
