<?xml version="1.0" encoding="utf-8"?>
<!-- Generator: Adobe Illustrator 16.0.4, SVG Export Plug-In . SVG Version: 6.00 Build 0)  -->
<!DOCTYPE svg PUBLIC "-//W3C//DTD SVG 1.1//EN" "http://www.w3.org/Graphics/SVG/1.1/DTD/svg11.dtd">
<svg version="1.1" id="Layer_1" xmlns="http://www.w3.org/2000/svg" xmlns:xlink="http://www.w3.org/1999/xlink" x="0px" y="0px"
	 width="39.897px" height="43.634px" viewBox="0 0 39.897 43.634" enable-background="new 0 0 39.897 43.634" xml:space="preserve">
<circle fill="#EB212E" cx="29.235" cy="10.663" r="10.663"/>
<path fill="#2C507B" d="M29.234,23.992c-7.352,0-13.309-5.952-13.327-13.3C7.061,10.994,0,16.621,0,23.533
	c0,6.887,7.018,12.5,15.831,12.832c0.095,0.025,0.189,0.056,0.295,0.071c0.131,4.775-3.35,6.347-5.183,7.106
	c5.94,0.766,11.436-3.31,12.683-8.327l-0.005-0.012c5.712-2.041,9.685-6.494,9.685-11.67c0-0.081-0.012-0.156-0.015-0.238
	C32.004,23.709,30.658,23.992,29.234,23.992z"/>
</svg>
