<?xml version="1.0" encoding="utf-8"?>
<!-- Generator: Adobe Illustrator 16.0.4, SVG Export Plug-In . SVG Version: 6.00 Build 0)  -->
<!DOCTYPE svg PUBLIC "-//W3C//DTD SVG 1.1//EN" "http://www.w3.org/Graphics/SVG/1.1/DTD/svg11.dtd">
<svg version="1.1" id="Layer_1" xmlns="http://www.w3.org/2000/svg" xmlns:xlink="http://www.w3.org/1999/xlink" x="0px" y="0px"
	 width="14.444px" height="16.479px" viewBox="0 0 14.444 16.479" enable-background="new 0 0 14.444 16.479" xml:space="preserve">
<g>
	<path fill="#ED192F" d="M5.669,8.016L0.23,0h2.219c0.161,0,0.28,0.027,0.356,0.081s0.146,0.13,0.207,0.23l4.301,6.601
		C7.367,6.75,7.448,6.574,7.555,6.382l4.06-6.026c0.069-0.107,0.144-0.193,0.225-0.259C11.919,0.033,12.018,0,12.132,0h2.127
		L8.797,7.912l5.646,8.567h-2.208c-0.168,0-0.301-0.044-0.396-0.132c-0.096-0.088-0.175-0.186-0.236-0.293L7.188,9.143
		C7.134,9.304,7.064,9.457,6.98,9.603l-4.301,6.452c-0.069,0.107-0.147,0.205-0.235,0.293c-0.088,0.088-0.213,0.132-0.374,0.132H0
		L5.669,8.016z"/>
</g>
</svg>
