<?xml version="1.0" encoding="utf-8"?>
<!-- Generator: Adobe Illustrator 15.1.0, SVG Export Plug-In . SVG Version: 6.00 Build 0)  -->
<!DOCTYPE svg PUBLIC "-//W3C//DTD SVG 1.1//EN" "http://www.w3.org/Graphics/SVG/1.1/DTD/svg11.dtd">
<svg version="1.1" id="Layer_1" xmlns="http://www.w3.org/2000/svg" xmlns:xlink="http://www.w3.org/1999/xlink" x="0px" y="0px"
	 width="720px" height="720px" viewBox="0 0 720 720" enable-background="new 0 0 720 720" xml:space="preserve">
<g id="f1sYmg_1_">
	<g>
		<path fill="#FFFFFF" d="M411.639,226.77c-27.34-13.292-66.748-23.075-108.277-16.658c-5.855-0.862,3.341-8.174,6.664-11.661
			c26.336-27.645,56.312-56.313,84.955-84.956C430.396,78.08,466.369,34.884,541.572,40.2
			c77.892,5.505,143.566,70.078,138.263,158.251c-4.233,70.354-47.382,99.021-91.62,143.26
			c-19.169,19.169-39.206,39.205-58.303,58.303c-42.117,42.117-74.527,93.378-164.915,84.956
			c-29.266-2.727-82.654-22.729-86.622-51.64c-3.786-27.587,22.824-54.895,44.977-56.639c26.35-2.073,42.834,23.713,79.959,13.326
			c15.983-4.471,39.606-31.276,49.976-41.645c31.089-31.09,57.376-59.042,89.953-91.62c22.977-22.977,56.235-42.85,41.646-86.622
			c-8.362-25.09-37.779-45.282-71.63-34.982c-22.983,6.994-38.054,28.059-53.306,43.311
			C443.86,194.548,431.268,209.598,411.639,226.77z"/>
		<path fill="#FFFFFF" d="M303.361,501.628c25.463,14.273,65.087,22.22,104.945,16.658c5.414,1.604-3.559,8.394-6.663,11.66
			c-25.248,26.567-54.111,54.112-81.625,81.625c-31.696,31.695-62.869,64.028-118.271,68.298
			c-30.856,2.377-63.527-6.915-79.958-14.992c-46.156-22.688-85.768-75.769-81.625-143.26
			c3.972-64.696,47.739-101.045,86.622-139.928c19.284-19.283,38.483-38.482,56.638-56.638
			c36.812-36.812,69.133-80.851,139.928-83.291c36.438-1.256,105.489,19.047,109.943,53.306
			c3.566,27.438-22.957,55.062-44.977,56.638c-21.114,1.51-38.658-17.57-63.302-16.658c-28.602,1.059-45.885,25.896-63.301,43.312
			c-27.537,27.537-56.532,56.53-86.622,86.621c-16.571,16.569-34.674,30.61-39.979,46.644
			c-13.168,39.787,19.187,86.139,68.298,74.961c24.838-5.653,36.765-26.771,51.64-41.646c7.857-7.856,15.147-15.146,23.321-23.321
			C284.769,515.223,292.465,505.89,303.361,501.628z"/>
	</g>
</g>
</svg>
