<?xml version="1.0" encoding="utf-8"?>
<!-- Generator: Adobe Illustrator 16.0.4, SVG Export Plug-In . SVG Version: 6.00 Build 0)  -->
<!DOCTYPE svg PUBLIC "-//W3C//DTD SVG 1.1//EN" "http://www.w3.org/Graphics/SVG/1.1/DTD/svg11.dtd">
<svg version="1.1" id="Layer_1" xmlns="http://www.w3.org/2000/svg" xmlns:xlink="http://www.w3.org/1999/xlink" x="0px" y="0px"
	 width="32.406px" height="39.657px" viewBox="320.217 342.737 32.406 39.657"
	 enable-background="new 320.217 342.737 32.406 39.657" xml:space="preserve">
<path fill="#4B4B4B" d="M340.943,350.484c2.934,4.233,1.88,10.045-2.355,12.979c-4.234,2.933-10.046,1.88-12.979-2.354
	s-1.88-10.046,2.354-12.98C332.196,345.195,338.009,346.249,340.943,350.484z M347.185,381.11c0.938,1.354,2.799,1.69,4.153,0.754
	c1.356-0.939,1.692-2.801,0.754-4.153l-9.122-13.163c3.977-4.398,4.561-11.106,1.038-16.189c-4.107-5.927-12.243-7.402-18.171-3.295
	c-5.925,4.105-7.401,12.244-3.295,18.171c3.522,5.083,10.007,6.891,15.521,4.713L347.185,381.11z"/>
</svg>
